<?xml version="1.0" encoding="utf-8"?>
<svg width="478" height="512" viewBox="0 0 478 512" fill="none" xmlns="http://www.w3.org/2000/svg">
<rect y="152" width="239" height="288" fill="#DCE4FE"/>
<rect x="239" y="152" width="239" height="288" fill="#C5D5FD"/>
<path d="M262.461 268.698C256.179 304.323 279.874 338.786 315.499 345.068C351.212 349.842 382.202 320.784 393.775 269.513C407.537 208.541 426.097 215.809 332.688 218.632C296.512 219.361 268.625 233.737 262.461 268.698Z" fill="#BBE149"/>
<path d="M262.461 268.698C256.179 304.323 279.874 338.786 315.499 345.068C351.212 349.842 382.202 320.784 393.775 269.513C407.537 208.541 426.097 215.809 332.688 218.632C296.512 219.361 268.625 233.737 262.461 268.698Z" fill="#7AB83E"/>
<path d="M216.02 268.698C222.302 304.323 198.607 338.786 162.982 345.068C127.269 349.842 96.2788 320.784 84.706 269.513C70.9436 208.541 52.3835 215.809 145.793 218.632C181.969 219.361 209.856 233.737 216.02 268.698Z" fill="#BBE149"/>
<path d="M216.02 268.698C222.302 304.323 198.607 338.786 162.982 345.068C127.269 349.842 96.2788 320.784 84.706 269.513C70.9436 208.541 52.3835 215.809 145.793 218.632C181.969 219.361 209.856 233.737 216.02 268.698Z" fill="#BBE149"/>
<path d="M336.649 292.803C343.861 288.727 346.403 279.576 342.327 272.364C338.251 265.152 329.1 262.61 321.888 266.686L336.649 292.803ZM228.974 483.467C239.039 481.723 244.727 474.604 247.727 468.216C250.519 462.268 251.941 455.109 252.952 448.531C255.23 433.718 256.047 418.854 259.946 399.745C267.25 363.951 284.169 322.465 336.649 292.803L321.888 266.686C259.492 301.953 238.966 352.514 230.552 393.747C226.592 413.152 224.981 433.046 223.301 443.971C222.334 450.26 221.393 453.714 220.571 455.465C219.956 456.775 220.776 454.441 223.849 453.908L228.974 483.467Z" fill="#56995E"/>
<path d="M141.745 292.803C134.533 288.727 131.991 279.576 136.068 272.364C140.144 265.152 149.295 262.61 156.507 266.686L141.745 292.803ZM249.42 483.467C239.356 481.723 233.668 474.604 230.668 468.216C227.875 462.268 226.454 455.109 225.442 448.531C223.164 433.718 222.348 418.854 218.449 399.745C211.144 363.951 194.225 322.465 141.745 292.803L156.507 266.686C218.902 301.953 239.429 352.514 247.843 393.747C251.802 413.152 253.413 433.046 255.094 443.971C256.061 450.26 257.001 453.714 257.823 455.465C258.439 456.775 257.618 454.441 254.545 453.908L249.42 483.467Z" fill="#79B83B"/>
<rect x="223" y="362" width="16" height="78" fill="#79B83B"/>
<rect x="239" y="362" width="16" height="78" fill="#56995E"/>
<path d="M239 440H478V468C478 492.301 458.301 512 434 512H239V440Z" fill="#A7B9E4"/>
<path d="M0 440H239V512H44C19.6995 512 0 492.301 0 468V440Z" fill="#C5D5FD"/>
<path d="M0 85C0 60.6995 19.6995 41 44 41H239V152H0V85Z" fill="#BBE149"/>
<path d="M239 41H434C458.301 41 478 60.6995 478 85V152H239V41Z" fill="#79B83B"/>
<rect x="352" width="30" height="111" rx="14" fill="#424765"/>
<path d="M224 14C224 6.26801 230.268 0 238 0H239V111H238C230.268 111 224 104.732 224 97V14Z" fill="#535E7E"/>
<path d="M239 0H240C247.732 0 254 6.26801 254 14V97C254 104.732 247.732 111 240 111H239V0Z" fill="#424765"/>
<rect x="96" width="30" height="111" rx="14" fill="#535E7E"/>
</svg>
